<?xml version="1.0" encoding="UTF-8" standalone="no"?>
<!-- Created by User:Dancraggs for the English Wikipedia -->

<svg
   xmlns:dc="http://purl.org/dc/elements/1.1/"
   xmlns:rdf="http://www.w3.org/1999/02/22-rdf-syntax-ns#"
   xmlns:svg="http://www.w3.org/2000/svg"
   xmlns="http://www.w3.org/2000/svg"
   version="1.1"
   width="475.79602"
   height="21.804001">
  <g>
    <path d="m 5.57118,16.349 2.303,-10.93 h 21.546 l 5.218,-5.178 -2.718,-0.015 h -22.684 c -5.943,0.217 -6.977,4.834 -7.076,5.367 l -2.002,9.525 c -0.362,1.707 -0.102,3.117 0.773,4.195 1.55,1.91 4.45,1.932 4.575,1.932 h 24.443 l -2.2,-4.898 h -22.177 z" style="fill:#0b361f" />
    <path d="m 69.67318,0.275 -1.063,5.073 h 12.17 l -3.353,15.934 h 5.7 l 3.35,-15.92 h 8.717 l 5.672,-5.088 h -31.194 z" style="fill:#0b361f" />
    <path d="m 47.93718,11.879 6.577,-6.596 4.034,6.597 h -10.61 z m 7.47,-11.878 c -2.953,0 -4.96,2.222 -5.255,2.574 l -19.16,18.64 h 7.3 l 4.705,-4.417 h 18.76 l 2.538,4.416 h 6.888 L 59.73118,2.412 C 59.52918,1.992 58.41518,0 55.40818,0" style="fill:#0b361f" />
    <path d="m 214.11918,11.879 6.578,-6.596 4.03,6.597 h -10.608 z m 7.467,-11.878 c -2.952,0 -4.957,2.222 -5.254,2.574 l -19.16,18.64 h 7.304 l 4.704,-4.417 h 18.76 l 2.536,4.416 h 6.89 l -11.454,-18.802 c -0.2,-0.42 -1.315,-2.412 -4.325,-2.412" style="fill:#0b361f" />
    <path d="m 103.20118,16.157 0.563,-2.68 h 21.546 l 1.107,-5.264 h -21.624 l 0.578,-2.75 h 21.273 l 5.564,-5.046 -2.14,-0.01 c -0.17,0 -16.846,-0.066 -22.636,-0.066 -6.452,0 -7.553,4.886 -7.564,4.936 l -2.213,10.52 c -0.304,1.437 -0.07,2.645 0.693,3.586 1.473,1.81 4.377,1.83 4.5,1.83 h 24.69 l -3.17,-5.056 h -21.165 z" style="fill:#0b361f" />
    <path d="m 194.27318,0.499 -1.656,7.873 h -19.336 l 1.66,-7.874 h -5.473 l -4.362,20.736 h 5.472 l 1.658,-7.873 h 19.33 l -1.655,7.873 h 5.476 l 4.36,-20.737 h -5.474 z" style="fill:#0b361f" />
    <path d="m 157.58618,10.379 h -19.01 l 1.077,-5.104 h 19.006 l -1.073,5.103 z m 1.577,-10.104 -23.415,0.004 h -0.677 l -4.403,20.935 h 5.78 l 1.23,-5.84 h 18.87 l -1.24,5.908 h 5.622 l 0.935,-4.443 c 0.238,-0.956 0.268,-2.67 -0.813,-3.78 0.848,-0.64 1.886,-1.696 2.193,-3.162 l 0.897,-4.264 c 0.063,-0.26 0.477,-2.18 -0.678,-3.677 -0.857,-1.115 -2.307,-1.68 -4.302,-1.68" style="fill:#0b361f" />
    <path d="m 279.35118,1.509 c -0.716,-0.91 -1.922,-1.37 -3.577,-1.37 h -0.022 c -0.298,0 -3.01,0.07 -5.084,2.5 l -11.874,13.543 -6.29,-12.975 c -0.148,-0.36 -1.41,-3.117 -4.465,-3.117 -3.06,0 -5.14,2.03 -5.54,3.935 l -3.653,17.276 h 5.55 l 3.23,-15.35 6.92,14.145 c 0.218,0.684 1.105,1.708 3.244,1.708 2.363,0 3.49,-1.234 3.72,-1.514 l 12.5,-13.816 -3.1,14.74 h 5.448 l 3.57,-16.99 c 0.053,-0.22 0.32,-1.57 -0.577,-2.714" style="fill:#0b361f" />
    <path d="m 341.12818,0.212 -1.05,5.02 h 12.218 l -3.363,15.987 h 5.646 l 3.36,-15.97 h 8.764 l 5.603,-5.037 h -31.178 z" style="fill:#85ce26" />
    <path d="m 422.78918,11.926 h -10.8 l 6.695,-6.713 4.105,6.713 z m 52.366,-10.494 c -0.71,-0.906 -1.917,-1.363 -3.586,-1.363 -0.303,0 -2.996,0.07 -5.075,2.492 l -11.95,13.63 -6.316,-13.034 c -0.013,-0.03 -1.274,-3.136 -4.468,-3.136 -3.053,0 -5.126,2.016 -5.528,3.912 l -3.455,16.358 -10.864,-17.818 c -0.04,-0.1 -1.066,-2.47 -4.34,-2.47 -3.158,0 -5.228,2.54 -5.224,2.54 l -17.898,17.416 -2.344,-3.746 h -21.264 l 0.58,-2.764 h 21.624 l 1.096,-5.206 h -21.7 l 0.594,-2.835 h 21.36 l 5.502,-4.99 -2.046,-0.01 c -0.074,0 -16.9,-0.067 -22.717,-0.067 -6.502,0 -7.553,4.88 -7.563,4.925 l -2.22,10.557 c -0.304,1.432 -0.067,2.632 0.69,3.568 1.44,1.775 4.18,1.827 4.488,1.827 h 29.847 l 4.723,-4.435 h 18.86 l 2.544,4.435 h 6.073 l -0.005,0.01 h 5.494 l 3.26,-15.478 6.977,14.26 c 0.113,0.352 0.713,1.72 3.24,1.72 2.627,0 3.687,-1.488 3.683,-1.488 l 12.652,-13.98 -3.13,14.883 h 5.397 l 3.577,-17.012 c 0.033,-0.157 0.33,-1.552 -0.573,-2.702" style="fill:#85ce26" />
    <path d="m 308.57618,5.286 5.517,-4.988 -2.062,-0.006 c 0,0 -16.845,-0.068 -22.718,-0.068 -6.5,0 -7.552,4.876 -7.56,4.92 l -3.378,16.074 h 5.57 l 1.66,-7.89 h 21.62 l 1.096,-5.206 h -21.7 l 0.594,-2.837 h 21.36 z" style="fill:#85ce26" />
    <path d="m 309.11118,5.269 h 4.77 l -3.363,15.99 h 5.646 l 4.415,-20.964 -5.995,0.026 -5.473,4.95 z" style="fill:#85ce26" />
    <path d="m 321.64818,3.586 c -0.302,1.448 0.613,2.63 2.043,2.63 1.426,0 2.83,-1.175 3.136,-2.63 0.305,-1.44 -0.6,-2.632 -1.994,-2.632 -1.476,0 -2.872,1.156 -3.185,2.632 m 5.905,-0.01 c -0.38,1.815 -2.167,3.29 -3.982,3.29 -1.813,0 -2.98,-1.475 -2.6,-3.28 0.387,-1.83 2.16,-3.29 4.02,-3.29 1.775,0 2.94,1.485 2.562,3.28" style="fill:#85ce26" />
    <path d="m 323.17718,3.589 0.127,-0.616 h 2.298 l -0.128,0.615 z m 2.02,1.315 h 0.604 l 0.19,-0.793 c -0.014,-0.07 -0.044,-0.14 -0.1,-0.2 0.1,-0.077 0.228,-0.204 0.263,-0.382 l 0.11,-0.513 c 0.007,-0.033 0.057,-0.264 -0.084,-0.444 -0.104,-0.136 -0.28,-0.204 -0.52,-0.204 h -2.91 l -0.53,2.528 h 0.698 l 0.147,-0.704 h 2.28 l -0.15,0.71 z" style="fill:#85ce26" />
  </g>
</svg>
